<?xml version="1.0" encoding="UTF-8"?>
<svg width="18px" height="18px" viewBox="0 0 18 18" version="1.1" xmlns="http://www.w3.org/2000/svg" xmlns:xlink="http://www.w3.org/1999/xlink">
    <g stroke="none" stroke-width="1" fill="none" fill-rule="evenodd">
        <path d="M9,0 C4.0275,0 0,4.0275 0,9 C0,12.9825 2.57625,16.34625 6.15375,17.53875 C6.60375,17.6175 6.7725,17.3475 6.7725,17.11125 C6.7725,16.8975 6.76125,16.2187 6.76125,15.4612 C4.5,15.9487 3.915,14.9625 3.735,14.4525 C3.63375,14.2050 3.195,13.4025 2.8125,13.1887 C2.4975,13.0200 2.0475,12.5325 2.80125,12.5212 C3.51,12.5100 4.01625,13.1662 4.185,13.4250 C4.995,14.7937 6.28875,14.4862 6.80625,14.2500 C6.885,13.6725 7.12125,13.2862 7.38,13.0762 C5.3775,12.8662 3.285,12.0825 3.285,8.6062 C3.285,7.61995 3.63375,6.80625 4.2075,6.16875 C4.1175,5.94375 3.8025,5.01375 4.2975,3.76125 C4.2975,3.76125 5.05125,3.52500 6.7725,4.69875 C7.4925,4.49625 8.2575,4.39500 9.0225,4.39500 C9.7875,4.39500 10.5525,4.49625 11.2725,4.69875 C12.9937,3.51375 13.7475,3.76125 13.7475,3.76125 C14.2425,5.01375 13.9275,5.94375 13.8375,6.16875 C14.4112,6.80625 14.76,7.60875 14.76,8.6062 C14.76,12.0937 12.6562,12.8662 10.6537,13.0762 C10.98,13.3350 11.2612,13.8337 11.2612,14.6175 C11.2612,15.7425 11.25,16.8075 11.25,17.1112 C11.25,17.3475 11.4187,17.6287 11.8687,17.5387 C15.4237,16.3462 18,12.9712 18,9 C18,4.0275 13.9725,0 9,0 Z" fill="#1B1F23"></path>
    </g>
</svg>
